<?xml version="1.0" encoding="UTF-8"?>
<svg xmlns="http://www.w3.org/2000/svg" xmlns:xlink="http://www.w3.org/1999/xlink" viewBox="0 0 240 240" width="240px" height="240px">
<g id="surface142746871">
<path style=" stroke:none;fill-rule:nonzero;fill:rgb(31.764707%,35.294119%,96.470588%);fill-opacity:1;" d="M 205 25 L 35 25 L 50 195 L 120 215 L 190 195 Z M 205 25 "/>
<path style=" stroke:none;fill-rule:nonzero;fill:rgb(71.372551%,70.19608%,96.470588%);fill-opacity:1;" d="M 120 40 L 120 199.5 L 176 183.5 L 188.5 40 Z M 120 40 "/>
<path style=" stroke:none;fill-rule:nonzero;fill:rgb(100%,100%,100%);fill-opacity:1;" d="M 165.5 65 L 120 65 L 120 85 L 144.5 85 L 143 105 L 120 105 L 120 125 L 142 125 L 140.5 147.5 L 120 154.5 L 120 175.5 L 159.5 162.5 L 163 105 Z M 165.5 65 "/>
<path style=" stroke:none;fill-rule:nonzero;fill:rgb(93.333334%,93.333334%,93.333334%);fill-opacity:1;" d="M 120 65 L 120 85 L 75.5 85 L 74 65 Z M 97 105 L 98 125 L 120 125 L 120 105 Z M 99 135 L 79 135 L 80.5 162.5 L 120 175.5 L 120 154.5 L 99.5 147.5 Z M 99 135 "/>
</g>
</svg>
