<?xml version="1.0" encoding="UTF-8"?>
<svg xmlns="http://www.w3.org/2000/svg" xmlns:xlink="http://www.w3.org/1999/xlink" viewBox="0 0 144 144" width="144px" height="144px">
<g id="surface142478931">
<path style=" stroke:none;fill-rule:nonzero;fill:rgb(31.764707%,35.294119%,96.470588%);fill-opacity:1;" d="M 123 15 L 21 15 L 30 117 L 72 129 L 114 117 Z M 123 15 "/>
<path style=" stroke:none;fill-rule:nonzero;fill:rgb(71.372551%,70.19608%,96.470588%);fill-opacity:1;" d="M 72 24 L 72 119.699219 L 105.601562 110.101562 L 113.101562 24 Z M 72 24 "/>
<path style=" stroke:none;fill-rule:nonzero;fill:rgb(100%,100%,100%);fill-opacity:1;" d="M 72 75 L 72 63 L 97.800781 63 L 95.699219 97.5 L 72 105.300781 L 72 92.699219 L 84.300781 88.5 L 85.199219 75 Z M 98.699219 51 L 99.601562 39 L 72 39 L 72 51 Z M 98.699219 51 "/>
<path style=" stroke:none;fill-rule:nonzero;fill:rgb(93.333334%,93.333334%,93.333334%);fill-opacity:1;" d="M 72 92.699219 L 72 105.300781 L 48.300781 97.5 L 47.101562 81 L 59.101562 81 L 59.699219 88.5 Z M 57.300781 51 L 72 51 L 72 39 L 44.699219 39 L 46.800781 75 L 72 75 L 72 63 L 58.199219 63 Z M 57.300781 51 "/>
</g>
</svg>
